<svg width="600" height="600" viewBox="0 0 600 600" xmlns="http://www.w3.org/2000/svg" xmlns:xlink="http://www.w3.org/1999/xlink" id="图层_1" overflow="hidden"><g><line x1="14.7" y1="524.8" x2="585.3" y2="524.8" stroke="#2E4454" stroke-width="10" stroke-miterlimit="10" fill="none"/><path d="M577.9 116.5 388.1 336.6 206.9 279.2 15 431.4 21.5 440.2 208.5 291.6 391.3 349.6 585.3 124.6 586.3 123.5Z" fill="#B73630"/><rect x="169.8" y="70.7" width="211.6" height="454.1" fill="#273B52" opacity="0.2"/></g><path d="M29.7 435.8C29.7 442.1 24.6 447.3 18.2 447.3 11.9 447.3 6.7 442.2 6.7 435.8 6.7 429.5 11.8 424.3 18.2 424.3 24.6 424.4 29.7 429.5 29.7 435.8Z" stroke="#C13531" stroke-width="6" stroke-miterlimit="10" fill="#FFFFFF"/><path d="M219.3 286.3C219.3 292.6 214.2 297.8 207.8 297.8 201.5 297.8 196.3 292.7 196.3 286.3 196.3 280 201.4 274.8 207.8 274.8 214.2 274.8 219.3 280 219.3 286.3Z" stroke="#C13531" stroke-width="6" stroke-miterlimit="10" fill="#FFFFFF"/><path d="M401.2 342.3C401.2 348.6 396.1 353.8 389.7 353.8 383.4 353.8 378.2 348.7 378.2 342.3 378.2 336 383.3 330.8 389.7 330.8 396 330.9 401.2 336 401.2 342.3Z" stroke="#C13531" stroke-width="6" stroke-miterlimit="10" fill="#FFFFFF"/><path d="M593.5 120.2C593.5 126.5 588.4 131.7 582 131.7 575.7 131.7 570.5 126.6 570.5 120.2 570.5 113.9 575.6 108.7 582 108.7 588.4 108.7 593.5 113.8 593.5 120.2Z" stroke="#C13531" stroke-width="6" stroke-miterlimit="10" fill="#FFFFFF"/></svg>