<svg width="600" height="600" viewBox="0 0 600 600" xmlns="http://www.w3.org/2000/svg" xmlns:xlink="http://www.w3.org/1999/xlink" id="图层_1" overflow="hidden"><path d="M10.57 459.24C8.359 459.24 6.104 458.554 4.184 457.118-0.423 453.524-1.383 446.924 2.203 442.234L152.726 244.324 298.043 335.554 442.052 172.566 593.959 244.14C599.24 246.627 601.471 252.964 598.981 258.251 596.53 263.562 590.223 265.843 584.917 263.317L447.366 198.47 301.989 363 157.904 272.566 19.032 455.073C16.899 457.808 13.737 459.24 10.57 459.24Z" fill="#C13531"/><path d="M588.417 600 0 600 0 10.622C0 4.73 4.746 0 10.57 0 16.415 0 21.167 4.73 21.167 10.621L21.167 578.84 588.417 578.84C594.244 578.84 598.982 583.591 598.982 589.438 598.982 595.271 594.244 600 588.417 600Z" fill="#293C54"/></svg>