<svg width="600" height="600" viewBox="0 0 600 600" xmlns="http://www.w3.org/2000/svg" xmlns:xlink="http://www.w3.org/1999/xlink" id="图层_1" overflow="hidden"><line x1="299.224" y1="21.935" x2="299.224" y2="577.714" fill="none"/><line x1="58.107" y1="438.792" x2="540.34" y2="160.856" fill="none"/><line x1="58.107" y1="160.856" x2="540.34" y2="438.792" fill="none"/><g><path d="M299.26 589.601 47.783 444.765 47.783 154.945 299.26 10.048 550.664 154.944 550.664 444.764 299.26 589.601ZM68.416 432.817 299.26 565.847 530.102 432.818 530.102 166.864 299.26 33.835 68.416 166.864 68.416 432.817Z" fill="#293C54"/><path d="M299.26 494.491 130.303 397.165 130.303 202.554 299.26 105.206 468.101 202.554 468.101 397.165 299.26 494.491ZM150.982 385.263 299.259 470.712 447.542 385.263 447.542 214.421 299.26 128.987 150.983 214.421 150.983 385.263Z" fill="#293C54"/></g><path d="M298.649 67.397 187.126 235.235 140.675 391.21 301.868 422.831 494.045 412.112 361.977 264.853Z" fill="#C13531"/></svg>