<svg width="600" height="600" viewBox="0 0 600 600" xmlns="http://www.w3.org/2000/svg" xmlns:xlink="http://www.w3.org/1999/xlink" id="图层_1" overflow="hidden"><rect x="358.405" y="299.848" width="220.935" height="242.881" fill="#CDCECD" opacity="0.5"/><rect x="287.901" y="56.92" width="294.15" height="77.668" fill="#CDCECD"/><rect x="18.54" y="56.92" width="251.631" height="185.174" fill="#CDCECD"/><rect x="18.54" y="473.354" width="326.232" height="69.375" fill="#CDCECD" opacity="0.5"/><path d="M339.813 299.848C169.965 299.848 170.576 242.094 21.121 242.094L21.121 416.35C156.657 416.35 156.487 472.133 339.813 473.354L339.813 299.848Z" fill="#CDCECD" opacity="0.5"/><path d="M579.022 299.848 579.022 192.422C432.296 192.422 434.95 134.588 290.261 134.588L290.261 242.055C418.342 242.055 417.769 298.496 579.022 299.848Z" fill="#CDCECD"/><rect x="578.767" y="56.92" width="21.169" height="77.668" fill="#293C54"/><rect x="339.603" y="299.848" width="21.208" height="242.881" fill="#293C54"/><rect x="269.239" y="56.92" width="21.155" height="185.174" fill="#293C54"/><rect x="-0.064" y="56.92" width="21.186" height="359.43" fill="#C13531"/><rect x="-0.064" y="473.354" width="21.186" height="69.375" fill="#293C54"/><rect x="578.767" y="192.422" width="21.169" height="350.307" fill="#C13531"/></svg>